<svg xmlns="http://www.w3.org/2000/svg" viewBox="0 0 800 450" font-family="'Noto Sans CJK SC', 'PingFang SC', 'Microsoft YaHei', -apple-system, sans-serif">
  <defs>
    <linearGradient id="bg1" x1="0" y1="0" x2="1" y2="1">
      <stop offset="0" stop-color="#f8fafc"/>
      <stop offset="1" stop-color="#eef2ff"/>
    </linearGradient>
    <filter id="sh1" x="-20%" y="-20%" width="140%" height="140%">
      <feDropShadow dx="0" dy="2" stdDeviation="4" flood-color="#1e293b" flood-opacity="0.08"/>
    </filter>
  </defs>
  <rect width="800" height="450" fill="url(#bg1)"/>
  <g filter="url(#sh1)">
    <rect x="60" y="70" width="420" height="310" rx="10" fill="#ffffff" stroke="#e2e8f0"/>
    <rect x="60" y="70" width="420" height="32" rx="10" fill="#1e293b"/>
    <rect x="60" y="92" width="420" height="10" fill="#1e293b"/>
    <circle cx="80" cy="86" r="5" fill="#ef4444"/>
    <circle cx="98" cy="86" r="5" fill="#f59e0b"/>
    <circle cx="116" cy="86" r="5" fill="#22c55e"/>
    <text x="270" y="91" fill="#cbd5e1" font-size="12" text-anchor="middle">PhotoShare / AI Coding</text>
    <rect x="60" y="102" width="110" height="278" fill="#f8fafc"/>
    <text x="78" y="128" fill="#64748b" font-size="11">EXPLORER</text>
    <g fill="#334155" font-size="11">
      <text x="80" y="150">src/</text>
      <text x="92" y="168">upload.tsx</text>
      <text x="92" y="186">gallery.tsx</text>
      <text x="92" y="204">comments.tsx</text>
      <text x="80" y="226">api/</text>
      <text x="80" y="244">styles/</text>
    </g>
    <g font-family="'Noto Sans Mono CJK SC', 'Noto Sans CJK SC', ui-monospace, Menlo, Consolas, monospace" font-size="11">
      <text x="186" y="128" fill="#94a3b8">1</text>
      <text x="206" y="128" fill="#0ea5e9">import</text>
      <text x="252" y="128" fill="#334155"> { useState } </text>
      <text x="186" y="146" fill="#94a3b8">2</text>
      <text x="206" y="146" fill="#8b5cf6">function</text>
      <text x="260" y="146" fill="#0f172a"> Gallery() {</text>
      <text x="186" y="164" fill="#94a3b8">3</text>
      <text x="220" y="164" fill="#64748b">// AI 生成</text>
      <text x="186" y="182" fill="#94a3b8">4</text>
      <text x="220" y="182" fill="#0f172a">const [photos, setPhotos]</text>
      <text x="186" y="200" fill="#94a3b8">5</text>
      <text x="220" y="200" fill="#0f172a">    = useState([])</text>
      <text x="186" y="218" fill="#94a3b8">6</text>
      <text x="220" y="218" fill="#ef4444">// TODO: thumbnail bug</text>
      <text x="186" y="236" fill="#94a3b8">7</text>
      <text x="220" y="236" fill="#0f172a">return &lt;Grid&gt;...&lt;/Grid&gt;</text>
    </g>
    <rect x="186" y="320" width="282" height="44" rx="8" fill="#eef2ff" stroke="#c7d2fe"/>
    <text x="200" y="338" fill="#6366f1" font-size="11">Cursor</text>
    <text x="200" y="354" fill="#1e293b" font-size="11">修复缩略图生成的 bug</text>
    <rect x="430" y="328" width="32" height="28" rx="6" fill="#6366f1"/>
    <text x="446" y="348" fill="#ffffff" font-size="14" text-anchor="middle">&#8593;</text>
  </g>
  <g filter="url(#sh1)">
    <rect x="520" y="120" width="220" height="210" rx="10" fill="#ffffff" stroke="#e2e8f0"/>
    <text x="630" y="142" fill="#0f172a" font-size="13" text-anchor="middle" font-weight="600">我的摄影站</text>
    <rect x="540" y="158" width="60" height="60" rx="4" fill="#fde68a"/>
    <rect x="610" y="158" width="60" height="60" rx="4" fill="#bfdbfe"/>
    <rect x="680" y="158" width="50" height="60" rx="4" fill="#fecaca"/>
    <rect x="540" y="228" width="60" height="60" rx="4" fill="#bbf7d0"/>
    <rect x="610" y="228" width="60" height="60" rx="4" fill="#e9d5ff"/>
    <rect x="680" y="228" width="50" height="60" rx="4" fill="#fed7aa"/>
    <text x="630" y="310" fill="#ef4444" font-size="11" text-anchor="middle">3 张图缩略图生成失败</text>
  </g>
  <text x="400" y="420" fill="#64748b" font-size="14" text-anchor="middle">基本功能跑起来了，细节里全是坑</text>
</svg>