<svg xmlns="http://www.w3.org/2000/svg" viewBox="0 0 800 450" font-family="'Noto Sans CJK SC', 'PingFang SC', 'Microsoft YaHei', -apple-system, sans-serif">
  <defs>
    <linearGradient id="bg3" x1="0" y1="0" x2="1" y2="1">
      <stop offset="0" stop-color="#fafaf9"/>
      <stop offset="1" stop-color="#f5f5f4"/>
    </linearGradient>
    <filter id="sh3" x="-20%" y="-20%" width="140%" height="140%">
      <feDropShadow dx="0" dy="3" stdDeviation="5" flood-color="#1c1917" flood-opacity="0.12"/>
    </filter>
    <radialGradient id="lens" cx="0.5" cy="0.5">
      <stop offset="0" stop-color="#1e293b"/>
      <stop offset="0.55" stop-color="#0f172a"/>
      <stop offset="0.65" stop-color="#334155"/>
      <stop offset="1" stop-color="#0f172a"/>
    </radialGradient>
    <marker id="arrow3" viewBox="0 0 10 10" refX="8" refY="5" markerWidth="8" markerHeight="8" orient="auto">
      <path d="M 0 0 L 10 5 L 0 10 z" fill="#0f172a"/>
    </marker>
  </defs>
  <rect width="800" height="450" fill="url(#bg3)"/>
  <g filter="url(#sh3)" transform="translate(160 110)">
    <rect x="0" y="60" width="360" height="200" rx="18" fill="#1c1917"/>
    <rect x="0" y="60" width="360" height="50" rx="18" fill="#27272a"/>
    <rect x="0" y="92" width="360" height="18" fill="#27272a"/>
    <path d="M 300 60 L 360 60 L 360 260 L 300 260 Q 280 210 300 60 Z" fill="#0c0a09"/>
    <rect x="130" y="30" width="100" height="50" rx="8" fill="#0c0a09"/>
    <rect x="155" y="18" width="50" height="18" rx="4" fill="#27272a"/>
    <text x="60" y="92" fill="#facc15" font-size="14" font-weight="700">FLAGSHIP</text>
    <circle cx="140" cy="175" r="88" fill="#0c0a09"/>
    <circle cx="140" cy="175" r="80" fill="url(#lens)"/>
    <circle cx="140" cy="175" r="60" fill="#020617"/>
    <circle cx="140" cy="175" r="42" fill="#1e293b"/>
    <circle cx="140" cy="175" r="30" fill="#0f172a" stroke="#475569" stroke-width="1"/>
    <circle cx="140" cy="175" r="14" fill="#0ea5e9" opacity="0.35"/>
    <circle cx="128" cy="163" r="6" fill="#ffffff" opacity="0.25"/>
    <circle cx="250" cy="35" r="22" fill="#27272a" stroke="#3f3f46" stroke-width="2"/>
    <text x="250" y="40" fill="#facc15" font-size="12" font-weight="700" text-anchor="middle">M</text>
    <circle cx="320" cy="50" r="10" fill="#dc2626"/>
    <rect x="240" y="130" width="110" height="100" rx="4" fill="#0f172a"/>
    <rect x="248" y="138" width="94" height="68" fill="#1e3a8a"/>
    <text x="295" y="176" fill="#93c5fd" font-size="9" text-anchor="middle">PREVIEW</text>
    <text x="295" y="220" fill="#94a3b8" font-size="8" text-anchor="middle">f/1.4  1/125  ISO400</text>
  </g>
  <g opacity="0.9">
    <rect x="600" y="150" width="150" height="100" rx="4" fill="none" stroke="#0f172a" stroke-width="3"/>
    <rect x="610" y="160" width="130" height="80" fill="none" stroke="#0f172a" stroke-width="1" stroke-dasharray="4 3"/>
    <text x="675" y="205" fill="#0f172a" font-size="13" font-weight="600" text-anchor="middle">构图</text>
    <text x="675" y="225" fill="#64748b" font-size="11" text-anchor="middle">你的审美</text>
    <line x1="643" y1="200" x2="707" y2="200" stroke="#94a3b8" stroke-width="1"/>
    <line x1="675" y1="170" x2="675" y2="230" stroke="#94a3b8" stroke-width="1"/>
  </g>
  <text x="340" y="90" fill="#0f172a" font-size="15" font-weight="600" text-anchor="middle">顶级机身 / 更大模型 / 更多 token</text>
  <text x="340" y="380" fill="#64748b" font-size="13" text-anchor="middle">AI 是工具</text>
  <text x="675" y="120" fill="#0f172a" font-size="15" font-weight="600" text-anchor="middle">镜头后面</text>
  <text x="675" y="280" fill="#64748b" font-size="13" text-anchor="middle">是你的判断</text>
  <path d="M 540 200 L 595 200" stroke="#0f172a" stroke-width="2" marker-end="url(#arrow3)" fill="none"/>
  <text x="400" y="420" fill="#44403c" font-size="15" text-anchor="middle" font-style="italic">别指望更好的机身，你得有自己的审美</text>
</svg>