<svg xmlns="http://www.w3.org/2000/svg" viewBox="0 0 900 500" font-family="'Noto Sans CJK SC', 'PingFang SC', 'Microsoft YaHei', -apple-system, sans-serif">
  <defs>
    <linearGradient id="bg4" x1="0" y1="0" x2="0" y2="1">
      <stop offset="0" stop-color="#f8fafc"/>
      <stop offset="1" stop-color="#eef2ff"/>
    </linearGradient>
    <filter id="sh4" x="-20%" y="-20%" width="140%" height="140%">
      <feDropShadow dx="0" dy="2" stdDeviation="4" flood-color="#1e293b" flood-opacity="0.1"/>
    </filter>
    <marker id="ar4" viewBox="0 0 10 10" refX="8" refY="5" markerWidth="6" markerHeight="6" orient="auto">
      <path d="M 0 0 L 10 5 L 0 10 z" fill="#8b5cf6"/>
    </marker>
  </defs>
  <rect width="900" height="500" fill="url(#bg4)"/>
  <text x="450" y="40" fill="#0f172a" font-size="20" font-weight="700" text-anchor="middle">AI 协作三代进化</text>
  <text x="450" y="62" fill="#64748b" font-size="13" text-anchor="middle">从一句话到一本手册，再到一整间摄影棚</text>
  <line x1="70" y1="90" x2="830" y2="90" stroke="#cbd5e1" stroke-width="2"/>
  <circle cx="190" cy="90" r="6" fill="#6366f1"/>
  <circle cx="450" cy="90" r="6" fill="#8b5cf6"/>
  <circle cx="710" cy="90" r="6" fill="#ef4444"/>

  <g filter="url(#sh4)">
    <rect x="60" y="110" width="260" height="330" rx="12" fill="#ffffff" stroke="#e2e8f0"/>
    <rect x="60" y="110" width="260" height="44" rx="12" fill="#eef2ff"/>
    <rect x="60" y="140" width="260" height="14" fill="#eef2ff"/>
    <text x="190" y="138" fill="#4338ca" font-size="14" font-weight="700" text-anchor="middle">第一代 / Prompt</text>
    <text x="190" y="174" fill="#64748b" font-size="11" text-anchor="middle">2022 - 2024</text>
    <g transform="translate(120 200)">
      <circle cx="30" cy="15" r="12" fill="#6366f1"/>
      <rect x="15" y="28" width="30" height="36" rx="6" fill="#6366f1"/>
    </g>
    <path d="M 170 220 Q 200 210 230 220 L 240 235 L 225 235 Q 200 245 170 235 Z" fill="#f1f5f9" stroke="#cbd5e1"/>
    <text x="200" y="233" fill="#334155" font-size="10" text-anchor="middle">海边日落...</text>
    <g transform="translate(236 205)">
      <rect x="0" y="8" width="42" height="28" rx="4" fill="#1e293b"/>
      <rect x="12" y="3" width="18" height="8" rx="2" fill="#1e293b"/>
      <circle cx="21" cy="22" r="10" fill="#0f172a" stroke="#475569"/>
      <circle cx="21" cy="22" r="5" fill="#0ea5e9" opacity="0.4"/>
    </g>
    <text x="190" y="305" fill="#0f172a" font-size="12" font-weight="600" text-anchor="middle">一句话，一次出片</text>
    <g fill="#475569" font-size="11">
      <text x="82" y="335">· Few-shot</text>
      <text x="82" y="355">· Chain-of-Thought</text>
      <text x="82" y="375">· 角色扮演</text>
    </g>
    <rect x="80" y="390" width="220" height="36" rx="6" fill="#fef3c7" stroke="#fde68a"/>
    <text x="190" y="413" fill="#92400e" font-size="11" text-anchor="middle">痛点：一次性，没记忆</text>
  </g>

  <g filter="url(#sh4)">
    <rect x="320" y="110" width="260" height="330" rx="12" fill="#ffffff" stroke="#e2e8f0"/>
    <rect x="320" y="110" width="260" height="44" rx="12" fill="#f3e8ff"/>
    <rect x="320" y="140" width="260" height="14" fill="#f3e8ff"/>
    <text x="450" y="138" fill="#7c3aed" font-size="14" font-weight="700" text-anchor="middle">第二代 / Context</text>
    <text x="450" y="174" fill="#64748b" font-size="11" text-anchor="middle">2025</text>
    <g transform="translate(375 195)">
      <rect x="0" y="40" width="150" height="18" rx="2" fill="#a78bfa"/>
      <rect x="5" y="22" width="150" height="18" rx="2" fill="#8b5cf6"/>
      <rect x="10" y="4" width="150" height="18" rx="2" fill="#7c3aed"/>
      <text x="85" y="17" fill="#fff" font-size="10" text-anchor="middle">风格手册</text>
      <text x="80" y="35" fill="#fff" font-size="10" text-anchor="middle">历史作品</text>
      <text x="75" y="53" fill="#fff" font-size="10" text-anchor="middle">场地实景</text>
    </g>
    <path d="M 450 275 L 450 295" stroke="#8b5cf6" stroke-width="2" marker-end="url(#ar4)"/>
    <g transform="translate(428 297)">
      <rect x="0" y="8" width="42" height="28" rx="4" fill="#1e293b"/>
      <rect x="12" y="3" width="18" height="8" rx="2" fill="#1e293b"/>
      <circle cx="21" cy="22" r="10" fill="#0f172a" stroke="#475569"/>
      <circle cx="21" cy="22" r="5" fill="#a78bfa" opacity="0.55"/>
    </g>
    <text x="450" y="355" fill="#0f172a" font-size="12" font-weight="600" text-anchor="middle">一本手册，持续出片</text>
    <g fill="#475569" font-size="11">
      <text x="342" y="380">· 动态上下文窗口</text>
      <text x="342" y="398">· RAG / 记忆 / 工具定义</text>
    </g>
    <rect x="340" y="408" width="220" height="22" rx="6" fill="#f5f3ff" stroke="#ddd6fe"/>
    <text x="450" y="423" fill="#6d28d9" font-size="10" text-anchor="middle">-- Karpathy, 2025</text>
  </g>

  <g filter="url(#sh4)">
    <rect x="580" y="110" width="260" height="330" rx="12" fill="#ffffff" stroke="#e2e8f0"/>
    <rect x="580" y="110" width="260" height="44" rx="12" fill="#fee2e2"/>
    <rect x="580" y="140" width="260" height="14" fill="#fee2e2"/>
    <text x="710" y="138" fill="#b91c1c" font-size="14" font-weight="700" text-anchor="middle">第三代 / Harness</text>
    <text x="690" y="174" fill="#64748b" font-size="11" text-anchor="middle">2026</text>
    <text x="740" y="174" fill="#ef4444" font-size="11" font-weight="700">NOW</text>
    <g transform="translate(605 195)">
      <rect x="0" y="0" width="210" height="90" rx="6" fill="#fff" stroke="#fca5a5" stroke-width="1.5"/>
      <rect x="8" y="8" width="58" height="34" fill="#fef2f2" stroke="#fecaca"/>
      <text x="37" y="29" fill="#b91c1c" font-size="9" text-anchor="middle">拍摄区</text>
      <rect x="72" y="8" width="60" height="34" fill="#fff7ed" stroke="#fed7aa"/>
      <text x="102" y="29" fill="#9a3412" font-size="9" text-anchor="middle">修图</text>
      <rect x="138" y="8" width="64" height="34" fill="#f0fdf4" stroke="#bbf7d0"/>
      <text x="170" y="29" fill="#166534" font-size="9" text-anchor="middle">质检</text>
      <rect x="8" y="48" width="94" height="34" fill="#eff6ff" stroke="#bfdbfe"/>
      <text x="55" y="69" fill="#1d4ed8" font-size="9" text-anchor="middle">选片流程</text>
      <rect x="108" y="48" width="94" height="34" fill="#faf5ff" stroke="#ddd6fe"/>
      <text x="155" y="69" fill="#6d28d9" font-size="9" text-anchor="middle">出片规范</text>
    </g>
    <g transform="translate(620 300)">
      <circle cx="0" cy="0" r="9" fill="#ef4444"/>
      <text x="0" y="3" fill="#fff" font-size="9" text-anchor="middle" font-weight="700">A</text>
      <circle cx="35" cy="0" r="9" fill="#f59e0b"/>
      <text x="35" y="3" fill="#fff" font-size="9" text-anchor="middle" font-weight="700">B</text>
      <circle cx="70" cy="0" r="9" fill="#22c55e"/>
      <text x="70" y="3" fill="#fff" font-size="9" text-anchor="middle" font-weight="700">C</text>
      <circle cx="105" cy="0" r="9" fill="#3b82f6"/>
      <text x="105" y="3" fill="#fff" font-size="9" text-anchor="middle" font-weight="700">D</text>
      <circle cx="140" cy="0" r="9" fill="#8b5cf6"/>
      <text x="140" y="3" fill="#fff" font-size="9" text-anchor="middle" font-weight="700">E</text>
      <circle cx="175" cy="0" r="9" fill="#64748b"/>
      <text x="175" y="3" fill="#fff" font-size="9" text-anchor="middle" font-weight="700">F</text>
      <path d="M 9 0 L 26 0 M 44 0 L 61 0 M 79 0 L 96 0 M 114 0 L 131 0 M 149 0 L 166 0" stroke="#475569" stroke-width="1.5" stroke-dasharray="3 2"/>
    </g>
    <text x="710" y="355" fill="#0f172a" font-size="12" font-weight="600" text-anchor="middle">一整间摄影棚</text>
    <g fill="#475569" font-size="11">
      <text x="602" y="380">· 工作流 / 反馈循环</text>
      <text x="602" y="398">· 质量门禁 / 生命周期</text>
    </g>
    <rect x="600" y="408" width="220" height="22" rx="6" fill="#fef2f2" stroke="#fecaca"/>
    <text x="710" y="423" fill="#b91c1c" font-size="10" text-anchor="middle">Agents are easy; Harness is hard</text>
  </g>
  <text x="450" y="478" fill="#475569" font-size="13" text-anchor="middle">提示 -&gt; 语境 -&gt; 环境</text>
</svg>