<svg xmlns="http://www.w3.org/2000/svg" viewBox="0 0 800 450" font-family="'Noto Sans CJK SC', 'PingFang SC', 'Microsoft YaHei', -apple-system, sans-serif">
  <defs>
    <linearGradient id="bg6" x1="0" y1="0" x2="0" y2="1">
      <stop offset="0" stop-color="#fafafa"/>
      <stop offset="1" stop-color="#eef2ff"/>
    </linearGradient>
    <filter id="sh6" x="-20%" y="-20%" width="140%" height="140%">
      <feDropShadow dx="0" dy="2" stdDeviation="4" flood-color="#1e293b" flood-opacity="0.1"/>
    </filter>
    <radialGradient id="halo6" cx="0.5" cy="0.5">
      <stop offset="0" stop-color="#fde68a" stop-opacity="0.8"/>
      <stop offset="1" stop-color="#fde68a" stop-opacity="0"/>
    </radialGradient>
  </defs>
  <rect width="800" height="450" fill="url(#bg6)"/>
  <text x="400" y="42" fill="#0f172a" font-size="20" font-weight="700" text-anchor="middle">软件工程方法 / AI 时代的元技能</text>
  <text x="400" y="64" fill="#64748b" font-size="13" text-anchor="middle">AI 干活，人定方向</text>
  <circle cx="400" cy="250" r="130" fill="url(#halo6)"/>
  <g transform="translate(400 250)">
    <circle cx="0" cy="-36" r="22" fill="#0f172a"/>
    <path d="M -34 -10 Q 0 -32 34 -10 L 30 80 L -30 80 Z" fill="#0f172a"/>
    <circle cx="0" cy="-36" r="22" fill="none" stroke="#f59e0b" stroke-width="2"/>
  </g>
  <text x="400" y="362" fill="#0f172a" font-size="13" font-weight="600" text-anchor="middle">你</text>
  <text x="400" y="380" fill="#64748b" font-size="11" text-anchor="middle">（方法论的载体）</text>

  <g filter="url(#sh6)">
    <rect x="80" y="110" width="180" height="70" rx="12" fill="#ffffff" stroke="#e2e8f0"/>
    <circle cx="112" cy="145" r="18" fill="#eef2ff"/>
    <text x="112" y="150" fill="#4338ca" font-size="16" text-anchor="middle" font-weight="700">1</text>
    <text x="140" y="138" fill="#0f172a" font-size="13" font-weight="600">分解问题</text>
    <text x="140" y="156" fill="#64748b" font-size="11">把模糊拆成清晰</text>
    <text x="140" y="172" fill="#64748b" font-size="11">把大拆成小</text>
  </g>
  <line x1="260" y1="160" x2="355" y2="220" stroke="#cbd5e1" stroke-width="2" stroke-dasharray="4 3"/>

  <g filter="url(#sh6)">
    <rect x="540" y="110" width="180" height="70" rx="12" fill="#ffffff" stroke="#e2e8f0"/>
    <circle cx="572" cy="145" r="18" fill="#fef3c7"/>
    <text x="572" y="150" fill="#b45309" font-size="16" text-anchor="middle" font-weight="700">2</text>
    <text x="600" y="138" fill="#0f172a" font-size="13" font-weight="600">抽象建模</text>
    <text x="600" y="156" fill="#64748b" font-size="11">丢弃细节</text>
    <text x="600" y="172" fill="#64748b" font-size="11">抓住灵魂</text>
  </g>
  <line x1="540" y1="160" x2="445" y2="220" stroke="#cbd5e1" stroke-width="2" stroke-dasharray="4 3"/>

  <g filter="url(#sh6)">
    <rect x="80" y="320" width="180" height="70" rx="12" fill="#ffffff" stroke="#e2e8f0"/>
    <circle cx="112" cy="355" r="18" fill="#fee2e2"/>
    <text x="112" y="360" fill="#b91c1c" font-size="16" text-anchor="middle" font-weight="700">3</text>
    <text x="140" y="348" fill="#0f172a" font-size="13" font-weight="600">权衡决策</text>
    <text x="140" y="366" fill="#64748b" font-size="11">快 vs 好</text>
    <text x="140" y="382" fill="#64748b" font-size="11">简单 vs 扩展</text>
  </g>
  <line x1="260" y1="340" x2="355" y2="290" stroke="#cbd5e1" stroke-width="2" stroke-dasharray="4 3"/>

  <g filter="url(#sh6)">
    <rect x="540" y="320" width="180" height="70" rx="12" fill="#ffffff" stroke="#e2e8f0"/>
    <circle cx="572" cy="355" r="18" fill="#dcfce7"/>
    <text x="572" y="360" fill="#166534" font-size="16" text-anchor="middle" font-weight="700">4</text>
    <text x="600" y="348" fill="#0f172a" font-size="13" font-weight="600">判断质量</text>
    <text x="600" y="366" fill="#64748b" font-size="11">能跑 vs 写得好</text>
    <text x="600" y="382" fill="#64748b" font-size="11">审美与品味</text>
  </g>
  <line x1="540" y1="340" x2="445" y2="290" stroke="#cbd5e1" stroke-width="2" stroke-dasharray="4 3"/>

  <g filter="url(#sh6)">
    <rect x="320" y="395" width="160" height="34" rx="17" fill="#0f172a"/>
    <text x="400" y="417" fill="#ffffff" font-size="12" font-weight="600" text-anchor="middle">AI 负责执行</text>
  </g>
</svg>