<svg xmlns="http://www.w3.org/2000/svg" viewBox="0 0 800 450" font-family="'Noto Sans CJK SC', 'PingFang SC', 'Microsoft YaHei', -apple-system, sans-serif">
  <defs>
    <linearGradient id="bg8" x1="0" y1="0" x2="1" y2="1">
      <stop offset="0" stop-color="#f8fafc"/>
      <stop offset="1" stop-color="#ecfeff"/>
    </linearGradient>
    <filter id="sh8" x="-20%" y="-20%" width="140%" height="140%">
      <feDropShadow dx="0" dy="2" stdDeviation="4" flood-color="#1e293b" flood-opacity="0.1"/>
    </filter>
    <marker id="ar8a" viewBox="0 0 10 10" refX="9" refY="5" markerWidth="6" markerHeight="6" orient="auto">
      <path d="M 0 0 L 10 5 L 0 10 z" fill="#6366f1"/>
    </marker>
    <marker id="ar8b" viewBox="0 0 10 10" refX="9" refY="5" markerWidth="6" markerHeight="6" orient="auto">
      <path d="M 0 0 L 10 5 L 0 10 z" fill="#10b981"/>
    </marker>
  </defs>
  <rect width="800" height="450" fill="url(#bg8)"/>
  <text x="400" y="40" fill="#0f172a" font-size="20" font-weight="700" text-anchor="middle">经验镜像 / 人与 Agent 的知识同步</text>
  <text x="400" y="62" fill="#64748b" font-size="13" text-anchor="middle">最好的 Agent，是最懂你的那个</text>

  <g filter="url(#sh8)">
    <rect x="60" y="100" width="260" height="300" rx="14" fill="#ffffff" stroke="#e2e8f0"/>
    <circle cx="190" cy="170" r="38" fill="#f1f5f9"/>
    <circle cx="190" cy="158" r="16" fill="#0f172a"/>
    <path d="M 168 180 Q 190 168 212 180 L 210 210 L 170 210 Z" fill="#0f172a"/>
    <text x="190" y="232" fill="#0f172a" font-size="14" font-weight="600" text-anchor="middle">你</text>
    <g fill="#334155" font-size="12">
      <circle cx="86" cy="270" r="4" fill="#6366f1"/>
      <text x="98" y="275">抽象建模 / DDD</text>
      <circle cx="86" cy="295" r="4" fill="#6366f1"/>
      <text x="98" y="300">分治 / 关注点分离</text>
      <circle cx="86" cy="320" r="4" fill="#6366f1"/>
      <text x="98" y="325">Trade-off 判断力</text>
      <circle cx="86" cy="345" r="4" fill="#6366f1"/>
      <text x="98" y="350">代码品味 / 审美</text>
      <circle cx="86" cy="370" r="4" fill="#94a3b8"/>
      <text x="98" y="375" fill="#64748b">需求分析（借鉴）</text>
    </g>
  </g>

  <g transform="translate(340 175)" filter="url(#sh8)">
    <rect x="0" y="0" width="120" height="150" rx="14" fill="#ffffff" stroke="#c7d2fe"/>
    <text x="60" y="22" fill="#4338ca" font-size="11" text-anchor="middle" font-weight="700">Skills / ADR</text>
    <text x="60" y="38" fill="#4338ca" font-size="11" text-anchor="middle" font-weight="700">Workflow</text>
    <g transform="translate(12 48)">
      <rect x="0" y="0" width="96" height="16" rx="3" fill="#eef2ff"/>
      <text x="6" y="12" fill="#4338ca" font-size="9">hf-specify</text>
      <rect x="0" y="20" width="96" height="16" rx="3" fill="#eef2ff"/>
      <text x="6" y="32" fill="#4338ca" font-size="9">hf-tdd</text>
      <rect x="0" y="40" width="96" height="16" rx="3" fill="#eef2ff"/>
      <text x="6" y="52" fill="#4338ca" font-size="9">hf-code-review</text>
      <rect x="0" y="60" width="96" height="16" rx="3" fill="#eef2ff"/>
      <text x="6" y="72" fill="#4338ca" font-size="9">hf-finalize</text>
      <rect x="0" y="80" width="96" height="16" rx="3" fill="#eef2ff"/>
      <text x="6" y="92" fill="#4338ca" font-size="9">...</text>
    </g>
  </g>

  <g>
    <path d="M 305 230 L 335 230" stroke="#6366f1" stroke-width="2" marker-end="url(#ar8a)" fill="none"/>
    <path d="M 465 270 L 495 270" stroke="#10b981" stroke-width="2" marker-end="url(#ar8b)" fill="none"/>
    <text x="320" y="222" fill="#4338ca" font-size="10" text-anchor="middle">固化</text>
    <text x="480" y="262" fill="#047857" font-size="10" text-anchor="middle">执行</text>
  </g>

  <g filter="url(#sh8)">
    <rect x="500" y="100" width="240" height="300" rx="14" fill="#ffffff" stroke="#e2e8f0"/>
    <rect x="566" y="138" width="108" height="80" rx="10" fill="#1e293b"/>
    <circle cx="592" cy="168" r="6" fill="#22d3ee"/>
    <circle cx="620" cy="168" r="6" fill="#22d3ee"/>
    <rect x="588" y="188" width="44" height="4" rx="2" fill="#64748b"/>
    <line x1="620" y1="128" x2="620" y2="138" stroke="#475569" stroke-width="2"/>
    <circle cx="620" cy="125" r="4" fill="#fbbf24"/>
    <rect x="538" y="218" width="164" height="16" rx="2" fill="#0f172a"/>
    <text x="620" y="230" fill="#94a3b8" font-size="9" text-anchor="middle">Agent / Harness Flow</text>
    <g fill="#334155" font-size="12">
      <circle cx="526" cy="270" r="4" fill="#10b981"/>
      <text x="538" y="275">按你的方法写规格</text>
      <circle cx="526" cy="295" r="4" fill="#10b981"/>
      <text x="538" y="300">按你的 TDD 写代码</text>
      <circle cx="526" cy="320" r="4" fill="#10b981"/>
      <text x="538" y="325">按你的审查抓问题</text>
      <circle cx="526" cy="345" r="4" fill="#10b981"/>
      <text x="538" y="350">按你的 DoD 验收</text>
      <circle cx="526" cy="370" r="4" fill="#10b981"/>
      <text x="538" y="375">越用越懂你</text>
    </g>
  </g>
  <text x="400" y="430" fill="#475569" font-size="14" text-anchor="middle" font-style="italic">你的 Harness 就是你看代码世界的方式</text>
</svg>