<svg xmlns="http://www.w3.org/2000/svg" viewBox="0 0 900 420" font-family="'Noto Sans CJK SC', 'PingFang SC', 'Microsoft YaHei', -apple-system, sans-serif">
  <defs>
    <linearGradient id="bg11" x1="0" y1="0" x2="1" y2="0">
      <stop offset="0" stop-color="#f8fafc"/>
      <stop offset="1" stop-color="#eef2ff"/>
    </linearGradient>
    <filter id="sh11" x="-20%" y="-20%" width="140%" height="140%">
      <feDropShadow dx="0" dy="2" stdDeviation="4" flood-color="#1e293b" flood-opacity="0.1"/>
    </filter>
  </defs>
  <rect width="900" height="420" fill="url(#bg11)"/>
  <text x="450" y="38" fill="#0f172a" font-size="20" font-weight="700" text-anchor="middle">写代码的一点心得 / 五篇一脉相承</text>
  <text x="450" y="58" fill="#64748b" font-size="13" text-anchor="middle">从写好代码，到用好 AI</text>

  <path d="M 60 230 Q 230 170 450 230 T 840 230" stroke="#cbd5e1" stroke-width="3" fill="none" stroke-dasharray="6 5"/>

  <g filter="url(#sh11)" transform="translate(50 158)">
    <circle cx="40" cy="72" r="10" fill="#6366f1" stroke="#fff" stroke-width="3"/>
    <text x="40" y="76" fill="#fff" font-size="11" font-weight="700" text-anchor="middle">1</text>
    <rect x="0" y="110" width="140" height="110" rx="10" fill="#ffffff" stroke="#e2e8f0"/>
    <text x="70" y="132" fill="#4338ca" font-size="11" font-weight="700" text-anchor="middle">抽象 / 分治 / 权衡</text>
    <text x="70" y="152" fill="#0f172a" font-size="11" text-anchor="middle">Coding 的本质</text>
    <line x1="20" y1="162" x2="120" y2="162" stroke="#e2e8f0"/>
    <text x="70" y="180" fill="#64748b" font-size="10" text-anchor="middle">AI 时代</text>
    <text x="70" y="196" fill="#64748b" font-size="10" text-anchor="middle">Coding 还重要吗</text>
  </g>

  <g filter="url(#sh11)" transform="translate(210 138)">
    <circle cx="40" cy="92" r="10" fill="#8b5cf6" stroke="#fff" stroke-width="3"/>
    <text x="40" y="96" fill="#fff" font-size="11" font-weight="700" text-anchor="middle">2</text>
    <rect x="0" y="130" width="140" height="110" rx="10" fill="#ffffff" stroke="#e2e8f0"/>
    <text x="70" y="152" fill="#6d28d9" font-size="11" font-weight="700" text-anchor="middle">读书 / 知识体系</text>
    <text x="70" y="172" fill="#0f172a" font-size="11" text-anchor="middle">怎么学习</text>
    <line x1="20" y1="182" x2="120" y2="182" stroke="#e2e8f0"/>
    <text x="70" y="200" fill="#64748b" font-size="10" text-anchor="middle">程序员的书单</text>
  </g>

  <g filter="url(#sh11)" transform="translate(370 148)">
    <circle cx="40" cy="82" r="10" fill="#f59e0b" stroke="#fff" stroke-width="3"/>
    <text x="40" y="86" fill="#fff" font-size="11" font-weight="700" text-anchor="middle">3</text>
    <rect x="0" y="120" width="140" height="110" rx="10" fill="#ffffff" stroke="#e2e8f0"/>
    <text x="70" y="142" fill="#b45309" font-size="11" font-weight="700" text-anchor="middle">重构</text>
    <text x="70" y="162" fill="#0f172a" font-size="11" text-anchor="middle">你可别再重构了</text>
    <line x1="20" y1="172" x2="120" y2="172" stroke="#e2e8f0"/>
    <text x="70" y="190" fill="#64748b" font-size="10" text-anchor="middle">现在对象不只是代码</text>
    <text x="70" y="206" fill="#64748b" font-size="10" text-anchor="middle">还有工作流</text>
  </g>

  <g filter="url(#sh11)" transform="translate(530 168)">
    <circle cx="40" cy="62" r="10" fill="#10b981" stroke="#fff" stroke-width="3"/>
    <text x="40" y="66" fill="#fff" font-size="11" font-weight="700" text-anchor="middle">4</text>
    <rect x="0" y="100" width="140" height="110" rx="10" fill="#ffffff" stroke="#e2e8f0"/>
    <text x="70" y="122" fill="#047857" font-size="11" font-weight="700" text-anchor="middle">TDD</text>
    <text x="70" y="142" fill="#0f172a" font-size="11" text-anchor="middle">代码质量</text>
    <line x1="20" y1="152" x2="120" y2="152" stroke="#e2e8f0"/>
    <text x="70" y="170" fill="#64748b" font-size="10" text-anchor="middle">TDD in the AI</text>
    <text x="70" y="186" fill="#64748b" font-size="10" text-anchor="middle">Coding Era</text>
  </g>

  <g filter="url(#sh11)" transform="translate(690 132)">
    <circle cx="40" cy="98" r="14" fill="#ef4444" stroke="#fff" stroke-width="3"/>
    <text x="40" y="103" fill="#fff" font-size="12" font-weight="700" text-anchor="middle">5</text>
    <rect x="-10" y="130" width="160" height="120" rx="12" fill="#fef2f2" stroke="#fca5a5" stroke-width="2"/>
    <text x="70" y="154" fill="#b91c1c" font-size="12" font-weight="700" text-anchor="middle">Harness Engineering</text>
    <text x="70" y="174" fill="#0f172a" font-size="11" text-anchor="middle">方向质量</text>
    <line x1="10" y1="184" x2="130" y2="184" stroke="#fecaca"/>
    <text x="70" y="202" fill="#64748b" font-size="10" text-anchor="middle">AI 遇上</text>
    <text x="70" y="218" fill="#64748b" font-size="10" text-anchor="middle">老旧的软件工程</text>
    <text x="70" y="238" fill="#b91c1c" font-size="10" text-anchor="middle" font-weight="600">你在这</text>
  </g>

  <g transform="translate(0 360)">
    <rect x="230" y="0" width="440" height="36" rx="18" fill="#0f172a"/>
    <text x="450" y="22" fill="#fbbf24" font-size="13" text-anchor="middle" font-weight="700">做好每一件小事 / 一脉相承</text>
  </g>
</svg>